<svg xmlns="http://www.w3.org/2000/svg" width="128" height="128" viewBox="0 0 128 128" role="img" aria-label="Blender logo">
  <path
    d="M29 53.5h40.3l19.2-18.3c4.8-4.5 12-4.3 16.5.5 4.4 4.7 4.2 12.1-.5 16.5L87.8 68.1c7.2 5.5 11.9 14.2 11.9 24.1 0 16.6-13.5 30.1-30.1 30.1-11.3 0-21.2-6.3-26.3-15.5l-16.6 16.1c-4.7 4.5-12 4.4-16.5-.3-4.5-4.7-4.4-12 .3-16.5l21.8-20.8-19.6-18.1c-4.7-4.3-5-11.7-.7-16.4 4.3-4.8 11.6-5.1 16.4-.7z"
    fill="#f68a2f"
  />
  <circle cx="69.5" cy="92.2" r="23.2" fill="#1c628f"/>
  <circle cx="69.5" cy="92.2" r="10.5" fill="#ffffff"/>
</svg>
